<svg width="414" height="613" viewBox="0 0 414 613" fill="none" xmlns="http://www.w3.org/2000/svg">
<path fill-rule="evenodd" clip-rule="evenodd" d="M-625 136.222L-545.458 181.63C-465.917 227.037 -306.833 317.852 -147.75 317.852C11.3333 317.852 170.417 227.037 329.5 261.093C488.583 295.148 647.667 454.074 806.75 431.37C965.833 408.667 1124.92 204.333 1204.46 102.167L1284 0V613H1204.46C1124.92 613 965.833 613 806.75 613C647.667 613 488.583 613 329.5 613C170.417 613 11.3333 613 -147.75 613C-306.833 613 -465.917 613 -545.458 613H-625V136.222Z" fill="#724AE2"/>
</svg>
